<?xml version="1.0" standalone="no"?>
<!DOCTYPE svg PUBLIC "-//W3C//DTD SVG 20010904//EN"
 "http://www.w3.org/TR/2001/REC-SVG-20010904/DTD/svg10.dtd">
<svg version="1.0" xmlns="http://www.w3.org/2000/svg"
 width="300.000000pt" height="246.000000pt" viewBox="0 0 300.000000 246.000000"
 preserveAspectRatio="xMidYMid meet">
<metadata>
Created by potrace 1.16, written by Peter Selinger 2001-2019
</metadata>
<g transform="translate(0.000000,246.000000) scale(0.100000,-0.100000)"
fill="#1c3245" stroke="none">
<path d="M189 2305 c-55 -30 -54 -4 -57 -860 -2 -434 0 -809 3 -832 3 -24 17
-56 31 -73 l26 -30 1036 0 1036 0 -64 65 -64 65 -753 0 -753 0 0 775 0 775
895 0 895 0 0 -713 0 -713 75 -74 75 -75 -2 810 c-3 882 -1 851 -59 881 -41
21 -2281 20 -2320 -1z m265 -321 c9 -8 16 -24 16 -33 0 -34 -24 -42 -112 -39
-83 3 -83 3 -86 31 -6 46 12 57 94 57 53 0 77 -4 88 -16z m4 -206 c15 -15 15
-51 0 -66 -14 -14 -156 -16 -177 -3 -7 5 -13 21 -13 36 0 15 6 31 13 36 21 13
163 11 177 -3z m-18 -229 c54 -31 84 -88 78 -151 -19 -196 -310 -183 -308 14
2 120 127 195 230 137z m25 -449 c3 -11 3 -29 0 -40 -6 -19 -14 -21 -98 -18
-88 3 -92 4 -95 26 -7 48 1 52 97 52 81 0 90 -2 96 -20z m-11 -196 c9 -8 16
-24 16 -33 0 -34 -24 -42 -112 -39 -83 3 -83 3 -86 31 -6 46 12 57 94 57 53 0
77 -4 88 -16z"/>
<path d="M333 1478 c-48 -23 -51 -103 -4 -127 79 -43 150 51 86 114 -26 27
-47 30 -82 13z"/>
<path d="M1265 1880 c-120 -25 -212 -79 -270 -157 -39 -54 -43 -82 -17 -106
27 -25 60 -21 85 10 79 96 157 135 272 137 63 1 70 -1 73 -19 2 -12 -11 -53
-28 -92 -52 -122 -35 -200 48 -223 20 -5 70 -10 110 -10 39 0 72 -2 72 -5 0
-4 -7 -20 -16 -36 -14 -28 -14 -33 0 -54 38 -58 93 -36 125 50 26 69 26 96 2
126 -18 22 -28 24 -130 27 -109 4 -111 4 -117 29 -4 16 3 47 22 91 47 110 33
187 -40 217 -43 18 -141 26 -191 15z"/>
<path d="M1723 1257 c2 -7 19 -57 37 -112 l32 -100 461 -462 462 -463 72 72
c40 40 73 77 73 83 0 5 -204 214 -452 462 l-453 453 -118 40 c-70 23 -117 34
-114 27z"/>
</g>
</svg>
