<?xml version="1.0" standalone="no"?>
<!DOCTYPE svg PUBLIC "-//W3C//DTD SVG 20010904//EN"
 "http://www.w3.org/TR/2001/REC-SVG-20010904/DTD/svg10.dtd">
<svg version="1.0" xmlns="http://www.w3.org/2000/svg"
 width="300.000000pt" height="253.000000pt" viewBox="0 0 300.000000 253.000000"
 preserveAspectRatio="xMidYMid meet">
<g transform="translate(0.000000,253.000000) scale(0.100000,-0.100000)"
fill="#1c3245" stroke="none">
<path d="M192 2380 c-66 -40 -63 17 -60 -1136 l3 -1046 37 -34 38 -34 1290 0
1289 0 36 31 35 31 0 1067 c0 1173 4 1093 -60 1126 -25 13 -192 15 -1302 15
-1259 0 -1273 0 -1306 -20z m2528 -315 l0 -195 -1220 0 -1220 0 0 195 0 195
1220 0 1220 0 0 -195z m0 -1065 l0 -730 -1220 0 -1220 0 0 730 0 730 1220 0
1220 0 0 -730z"/>
<path d="M429 2121 c-52 -42 -17 -131 52 -131 66 0 95 88 43 129 -33 26 -65
27 -95 2z"/>
<path d="M641 2123 c-11 -10 -24 -32 -27 -50 -5 -26 -1 -37 19 -57 51 -51 127
-22 127 48 0 62 -72 97 -119 59z"/>
<path d="M845 2115 c-14 -13 -25 -36 -25 -50 0 -33 42 -75 75 -75 33 0 75 42
75 75 0 14 -11 37 -25 50 -13 14 -36 25 -50 25 -14 0 -37 -11 -50 -25z"/>
<path d="M1593 1398 c-27 -30 -304 -713 -306 -755 -2 -66 76 -99 120 -50 27
30 303 718 303 756 0 64 -75 94 -117 49z"/>
<path d="M1100 1323 c-47 -32 -275 -216 -312 -252 -58 -54 -53 -77 34 -147
288 -234 288 -234 323 -234 39 0 65 28 65 70 0 31 -27 58 -165 165 -55 43
-100 81 -100 85 0 4 45 42 100 85 139 108 165 134 165 166 0 58 -64 94 -110
62z"/>
<path d="M1832 1330 c-28 -12 -46 -51 -38 -84 4 -16 50 -59 136 -127 72 -56
130 -105 130 -108 -1 -3 -59 -51 -131 -105 -78 -60 -132 -108 -135 -122 -9
-35 -1 -55 29 -78 23 -17 32 -18 56 -10 15 6 105 73 199 149 196 156 201 164
135 226 -38 36 -267 221 -313 252 -27 19 -35 20 -68 7z"/>
</g>
</svg>
